<?xml version="1.0" encoding="UTF-8"?>
<svg id="Layer_1" xmlns="http://www.w3.org/2000/svg" viewBox="0 0 451.65 388.04">
  <defs>
    <style>
      .cls-1 {
        fill: #c6ef43;
      }
    </style>
  </defs>
  <path class="cls-1" d="M3.18,178.87c-4.32,57.07,16.85,111.6,58.48,151.85,37.46,36.22,86.53,56.17,138.17,56.17h91.58c20.99,0,38.01-17.02,38.01-38.01v-44.63h-129.59c-62.1,0-114.57-50.74-114.57-110.81s49.71-110.81,110.81-110.81h183.58C379.66,37,342.66,0,297.02,0h-97.79C97.47,0,10.87,77.41,3.18,178.87Z"/>
  <path class="cls-1" d="M351.26,289.23v98.81h91.55v-88.36c0-.19-.02-.38-.03-.57-.03-.44-.05-.79-.07-1.14v-.1s0-.22,0-.22c.01-.5.03-.89.05-1.28.03-.58.05-1.05.05-1.52,0-49.06-39.15-88.97-87.28-88.97h-161.15c-5.83,0-10.76-5.7-10.76-12.45s4.93-12.45,10.76-12.45h81.4v-76.53h-81.4c-48.13,0-87.28,39.91-87.28,88.97s39.15,88.97,87.28,88.97h156.88v6.81Z"/>
  <path class="cls-1" d="M349.13,104.5c-22.12,0-40.11,17.99-40.11,40.11s17.99,40.11,40.11,40.11,40.11-17.99,40.11-40.11-17.99-40.11-40.11-40.11Z"/>
</svg>