<?xml version="1.0" encoding="UTF-8"?>
<svg id="Layer_1" xmlns="http://www.w3.org/2000/svg" viewBox="0 0 1073.53 170.08">
  <defs>
    <style>
      .cls-1 {
        fill: #c6ef43;
      }
    </style>
  </defs>
  <path class="cls-1" d="M.24,78.58c-1.84,24.34,7.19,47.6,24.94,64.77,15.98,15.45,36.91,23.96,58.93,23.96h39.06c8.95,0,16.21-7.26,16.21-16.21v-19.03h-55.27c-26.49,0-48.87-21.64-48.87-47.26s21.2-47.26,47.26-47.26h78.3c0-19.47-15.78-35.25-35.25-35.25h-41.71c-43.4,0-80.34,33.02-83.62,76.29Z"/>
  <path class="cls-1" d="M148.7,125.65v42.15h39.05v-37.69c0-.08,0-.16-.01-.24-.01-.19-.02-.34-.03-.48v-.04s0-.09,0-.09c0-.22.01-.38.02-.54.01-.25.02-.45.02-.65,0-20.93-16.7-37.95-37.23-37.95h-68.73c-2.49,0-4.59-2.43-4.59-5.31s2.1-5.31,4.59-5.31h34.72v-32.64h-34.72c-20.53,0-37.23,17.02-37.23,37.95s16.7,37.95,37.23,37.95h66.91v2.91Z"/>
  <path class="cls-1" d="M147.79,46.86c-9.43,0-17.11,7.68-17.11,17.11s7.68,17.11,17.11,17.11,17.11-7.68,17.11-17.11-7.68-17.11-17.11-17.11Z"/>
  <path class="cls-1" d="M291.49,50.78l-33.06,62.52v50.86h-41.64v-50.86l-41.28-62.52h40.67l21.34,34.61,16.76-34.61h37.22Z"/>
  <path class="cls-1" d="M415.97,51.23h54.75v112.94h-36.18v-78.48l-29.1,78.48h-44.52l-29.1-78.48v78.48h-36.03V51.23h54.59l32.88,72.85,32.72-72.85Z"/>
  <path class="cls-1" d="M606.09,50.78v31.28h-86.21v10.96h86.21v29.69h-86.21v10.16h86.21v31.28h-122.24V50.78h122.24Z"/>
  <path class="cls-1" d="M618.67,50.78h113.11v29.08h-39.01v84.3h-36.18v-84.3h-37.92v-29.08Z"/>
  <path class="cls-1" d="M875.54,89.61c0,5.72-.79,10.64-2.36,14.76-1.57,4.12-3.67,7.61-6.29,10.47-2.62,2.86-5.64,5.16-9.05,6.91-3.41,1.75-7,3.1-10.78,4.07l23.71,38.35h-47.04l-19.15-35.74h-26.9v35.74h-36.18V50.78h80.39c3.35,0,7.02.12,11.01.36,3.98.24,7.97.8,11.96,1.67,3.99.87,7.81,2.16,11.48,3.85,3.67,1.7,6.92,4,9.75,6.91,2.83,2.91,5.11,6.47,6.85,10.69,1.73,4.22,2.6,9.33,2.6,15.34ZM777.68,99.35h40.59c3.99,0,7.24-.12,9.76-.36,2.52-.24,4.51-.73,5.98-1.45,1.47-.73,2.49-1.72,3.07-2.98.57-1.26.86-2.91.86-4.94s-.29-3.68-.86-4.94c-.58-1.26-1.6-2.25-3.07-2.98-1.47-.73-3.46-1.21-5.98-1.45-2.52-.24-5.77-.36-9.76-.36h-40.59v19.48Z"/>
  <path class="cls-1" d="M884.15,50.78h36.03v113.38h-36.03V50.78Z"/>
  <path class="cls-1" d="M988.42,78.79c-3.99,0-7.23.66-9.75,1.99-2.52,1.33-4.51,3.16-5.98,5.48-1.47,2.33-2.49,5.07-3.07,8.22-.58,3.15-.86,6.62-.86,10.38s.29,7.26.86,10.47c.57,3.21,1.6,5.98,3.07,8.31,1.47,2.32,3.46,4.15,5.98,5.48,2.52,1.33,5.77,1.99,9.75,1.99h28.32c2.93,0,5.48-.22,7.63-.66,2.15-.44,3.96-1.24,5.43-2.41,1.47-1.16,2.67-2.74,3.62-4.73.94-1.99,1.68-4.54,2.2-7.64h37.91c-.84,7.42-2.44,13.76-4.8,19.02-2.36,5.26-5.19,9.69-8.5,13.29-3.3,3.6-6.92,6.45-10.85,8.55-3.93,2.11-7.94,3.74-12.04,4.9-4.09,1.16-8.08,1.91-11.96,2.24-3.88.33-7.39.5-10.54.5h-24.54c-3.36,0-7.16-.19-11.41-.58-4.25-.39-8.57-1.27-12.98-2.66-4.4-1.38-8.68-3.38-12.82-5.98-4.15-2.6-7.87-6.09-11.17-10.46-3.3-4.37-5.95-9.8-7.94-16.28s-2.99-14.25-2.99-23.34,1-16.86,2.99-23.33c1.99-6.48,4.64-11.9,7.94-16.28,3.31-4.37,7.03-7.86,11.17-10.46,4.14-2.6,8.42-4.59,12.82-5.98,4.4-1.38,8.73-2.27,12.98-2.66,4.25-.39,8.05-.58,11.41-.58h24.54c3.15,0,6.66.17,10.54.5,3.88.33,7.87,1.08,11.96,2.24,4.09,1.16,8.1,2.8,12.04,4.9,3.93,2.11,7.55,4.96,10.85,8.56,3.31,3.6,6.14,8.03,8.5,13.29,2.36,5.26,3.96,11.6,4.8,19.02h-37.91c-.74-5.76-2.57-9.74-5.51-11.96-2.94-2.21-7.39-3.32-13.37-3.32h-28.32Z"/>
</svg>