<?xml version="1.0" encoding="UTF-8"?>
<svg id="Layer_1" xmlns="http://www.w3.org/2000/svg" viewBox="0 0 600 387.95">
  <defs>
    <style>
      .cls-1 {
        fill: #c6ef43;
      }
    </style>
  </defs>
  <g>
    <path class="cls-1" d="M140.41,130.03c-3.14,41.48,12.25,81.12,42.51,110.38,27.23,26.33,62.9,40.83,100.44,40.83h66.57c15.26,0,27.63-12.37,27.63-27.63v-32.44h-94.2c-45.14,0-83.28-36.89-83.28-80.55s36.13-80.55,80.55-80.55h133.45C414.08,26.89,387.19,0,354.01,0h-71.09c-73.97,0-136.92,56.27-142.51,130.03Z"/>
    <path class="cls-1" d="M393.44,210.25v71.83h66.55v-64.23c0-.14-.01-.28-.02-.41-.02-.32-.04-.57-.05-.83v-.07s0-.16,0-.16c.01-.37.02-.65.04-.93.02-.42.04-.76.04-1.11,0-35.66-28.46-64.68-63.45-64.68h-117.14c-4.24,0-7.82-4.14-7.82-9.05s3.58-9.05,7.82-9.05h59.18v-55.63h-59.18c-34.99,0-63.45,29.01-63.45,64.68s28.46,64.68,63.45,64.68h114.04v4.95Z"/>
    <path class="cls-1" d="M391.89,75.97c-16.08,0-29.16,13.08-29.16,29.16s13.08,29.16,29.16,29.16,29.16-13.08,29.16-29.16-13.08-29.16-29.16-29.16Z"/>
  </g>
  <g>
    <path class="cls-1" d="M33.73,343c-2.22,0-4.04.35-5.47,1.05s-2.55,1.66-3.37,2.89c-.82,1.22-1.39,2.67-1.71,4.33-.32,1.66-.48,3.48-.48,5.47s.16,3.82.48,5.51c.32,1.69.89,3.15,1.71,4.37.82,1.22,1.94,2.19,3.37,2.89,1.43.7,3.25,1.05,5.47,1.05h16.09c2.74,0,4.97-.44,6.69-1.31,1.72-.87,2.78-2.27,3.19-4.2h-26.5v-11.55h47.58v34.46h-11.9l-2.36-5.42c-1.75,1.17-3.59,2.11-5.51,2.84-1.92.73-3.83,1.28-5.73,1.66-1.9.38-3.73.63-5.51.74-1.78.12-3.43.17-4.94.17h-10.06c-1.87,0-3.98-.1-6.34-.31-2.36-.2-4.77-.67-7.21-1.4-2.45-.73-4.84-1.78-7.17-3.15-2.33-1.37-4.4-3.21-6.21-5.51-1.81-2.3-3.27-5.16-4.37-8.57-1.11-3.41-1.66-7.51-1.66-12.29s.55-8.88,1.66-12.29c1.11-3.41,2.57-6.27,4.37-8.57,1.81-2.3,3.88-4.14,6.21-5.51,2.33-1.37,4.72-2.42,7.17-3.15,2.45-.73,4.85-1.19,7.21-1.4,2.36-.2,4.47-.31,6.34-.31h13.56c1.69,0,3.6.09,5.73.26,2.13.17,4.29.54,6.47,1.09,2.19.55,4.37,1.36,6.56,2.41,2.19,1.05,4.2,2.46,6.03,4.24,1.84,1.78,3.42,3.97,4.77,6.56,1.34,2.6,2.3,5.7,2.89,9.31h-21.25c-.47-2.51-1.53-4.2-3.19-5.07-1.66-.87-3.98-1.31-6.95-1.31h-15.66Z"/>
    <path class="cls-1" d="M157.31,325.59l-30,37.52v24.93h-20.03v-24.93l-30-37.52h24.66l15.31,20.73,15.3-20.73h24.75Z"/>
    <path class="cls-1" d="M227.63,325.51h30.44v62.45h-20.12v-41.72l-16.18,41.72h-24.75l-16.18-41.72v41.72h-20.03v-62.45h30.35l18.28,43.82,18.19-43.82Z"/>
    <path class="cls-1" d="M334.76,325.51v17.23h-47.93v6.03h47.93v16.35h-47.93v5.6h47.93v17.23h-67.96v-62.45h67.96Z"/>
    <path class="cls-1" d="M341.76,325.51h62.88v17.49h-21.69v44.95h-20.12v-44.95h-21.08v-17.49Z"/>
    <path class="cls-1" d="M485.28,348.86c0,3.44-.44,6.4-1.31,8.88-.87,2.48-2.04,4.58-3.5,6.3-1.46,1.72-3.13,3.11-5.03,4.16-1.9,1.05-3.89,1.87-5.99,2.45l18.98,17.32h-26.15l-16.44-15.74h-14.95v15.74h-20.12v-62.45h44.69c1.86,0,3.9.07,6.12.22,2.21.15,4.43.48,6.65,1.01,2.22.52,4.34,1.3,6.38,2.32,2.04,1.02,3.85,2.41,5.42,4.15,1.57,1.75,2.84,3.89,3.81,6.43.96,2.54,1.44,5.61,1.44,9.23ZM430.88,354.72h22.56c2.22,0,4.02-.07,5.42-.22,1.4-.15,2.51-.44,3.32-.87.82-.44,1.38-1.03,1.71-1.79.32-.76.48-1.75.48-2.97s-.16-2.22-.48-2.97c-.32-.76-.89-1.35-1.71-1.79-.82-.44-1.92-.73-3.32-.87-1.4-.14-3.21-.22-5.42-.22h-22.56v11.72Z"/>
    <path class="cls-1" d="M491.93,325.51h20.03v62.45h-20.03v-62.45Z"/>
    <path class="cls-1" d="M550.88,343c-2.22,0-4.02.35-5.42,1.05s-2.51,1.66-3.32,2.89c-.82,1.22-1.39,2.67-1.71,4.33-.32,1.66-.48,3.48-.48,5.47s.16,3.82.48,5.51c.32,1.69.89,3.15,1.71,4.37.82,1.22,1.92,2.19,3.32,2.89,1.4.7,3.21,1.05,5.42,1.05h15.74c1.63,0,3.05-.12,4.24-.35,1.19-.23,2.2-.66,3.02-1.27.82-.61,1.49-1.44,2.01-2.49.52-1.05.93-2.39,1.22-4.02h21.08c-.47,3.91-1.36,7.25-2.67,10.01-1.31,2.77-2.89,5.1-4.72,7-1.84,1.9-3.85,3.4-6.03,4.5-2.19,1.11-4.42,1.97-6.69,2.58-2.27.61-4.49,1.01-6.65,1.18-2.16.17-4.11.26-5.86.26h-13.64c-1.87,0-3.98-.1-6.34-.31-2.36-.2-4.77-.67-7.21-1.4-2.45-.73-4.83-1.78-7.13-3.15-2.3-1.37-4.37-3.21-6.21-5.51-1.84-2.3-3.31-5.16-4.42-8.57s-1.66-7.51-1.66-12.29.55-8.88,1.66-12.29,2.58-6.27,4.42-8.57c1.84-2.3,3.91-4.14,6.21-5.51,2.3-1.37,4.68-2.42,7.13-3.15,2.45-.73,4.85-1.19,7.21-1.4,2.36-.2,4.47-.31,6.34-.31h13.64c1.75,0,3.7.09,5.86.26,2.16.17,4.37.57,6.65,1.18,2.27.61,4.51,1.47,6.69,2.58,2.19,1.11,4.2,2.61,6.03,4.5,1.84,1.9,3.41,4.23,4.72,7,1.31,2.77,2.2,6.11,2.67,10.01h-21.08c-.41-3.03-1.43-5.13-3.06-6.3-1.63-1.17-4.11-1.75-7.43-1.75h-15.74Z"/>
  </g>
</svg>